<svg width="1024" height="1024" viewBox="0 0 1024 1024" fill="none" xmlns="http://www.w3.org/2000/svg">
<rect width="1024" height="1024" rx="80" fill="white"/>
<path d="M197 332C197 296.196 211.223 261.858 236.541 236.541C261.858 211.223 296.196 197 332 197H692C727.804 197 762.142 211.223 787.459 236.541C812.777 261.858 827 296.196 827 332V692C827 727.804 812.777 762.142 787.459 787.459C762.142 812.777 727.804 827 692 827H332C296.196 827 261.858 812.777 236.541 787.459C211.223 762.142 197 727.804 197 692V332ZM482.93 381.68C487.155 377.455 489.528 371.725 489.528 365.75C489.528 359.775 487.155 354.045 482.93 349.82C478.705 345.595 472.975 343.222 467 343.222C461.025 343.222 455.295 345.595 451.07 349.82L387.53 413.36L369.665 397.07C365.226 393.276 359.486 391.356 353.658 391.716C347.83 392.077 342.37 394.689 338.432 399C334.494 403.312 332.387 408.986 332.555 414.823C332.724 420.66 335.155 426.203 339.335 430.28L373.085 461.105C377.361 464.998 382.973 467.096 388.754 466.962C394.536 466.828 400.044 464.472 404.135 460.385L482.93 381.68ZM482.93 574.82C480.84 572.725 478.357 571.062 475.624 569.928C472.89 568.794 469.96 568.21 467 568.21C464.04 568.21 461.11 568.794 458.376 569.928C455.643 571.062 453.16 572.725 451.07 574.82L387.53 638.36L369.665 622.07C365.226 618.276 359.486 616.356 353.658 616.716C347.83 617.077 342.37 619.689 338.432 624C334.494 628.312 332.387 633.986 332.555 639.823C332.724 645.66 335.155 651.203 339.335 655.28L373.085 686.105C377.356 690.004 382.964 692.109 388.745 691.984C394.527 691.858 400.038 689.511 404.135 685.43L482.885 606.68C487.103 602.461 489.473 596.739 489.473 590.772C489.473 584.806 487.103 579.084 482.885 574.865M557 602C551.033 602 545.31 604.371 541.09 608.59C536.871 612.81 534.5 618.533 534.5 624.5C534.5 630.467 536.871 636.19 541.09 640.41C545.31 644.629 551.033 647 557 647H669.5C675.467 647 681.19 644.629 685.41 640.41C689.629 636.19 692 630.467 692 624.5C692 618.533 689.629 612.81 685.41 608.59C681.19 604.371 675.467 602 669.5 602H557ZM534.5 399.5C534.5 405.467 536.871 411.19 541.09 415.41C545.31 419.629 551.033 422 557 422H669.5C675.467 422 681.19 419.629 685.41 415.41C689.629 411.19 692 405.467 692 399.5C692 393.533 689.629 387.81 685.41 383.59C681.19 379.371 675.467 377 669.5 377H557C551.033 377 545.31 379.371 541.09 383.59C536.871 387.81 534.5 393.533 534.5 399.5Z" fill="#1E1E1E"/>
</svg>
